<svg width="339.51494140625px" height="161.6099609375px" xmlns="http://www.w3.org/2000/svg" viewBox="80.242529296875 -5.804980468750003 339.51494140625 161.6099609375" style="background: rgba(238, 0, 0, 0);" preserveAspectRatio="xMidYMid"><defs><filter id="editing-lego" x="-100%" y="-100%" width="300%" height="300%"><feFlood flood-color="#000" result="f1"></feFlood><feFlood flood-color="#ffff00" result="f2"></feFlood><feMorphology operator="dilate" radius="3" in="SourceAlpha"></feMorphology><feConvolveMatrix order="5,5" divisor="1" result="cm1" kernelMatrix="0 1 1 1 0  1 0 0 0 1  1 0 0 0 1  1 0 0 0 1  0 1 1 1 0"></feConvolveMatrix><feComposite operator="in" in="f1" in2="cm1" result="c1"></feComposite><feMorphology operator="dilate" radius="3"></feMorphology><feConvolveMatrix order="5,5" divisor="1" result="cm2" kernelMatrix="0 1 1 1 0  1 0 0 0 1  1 0 0 0 1  1 0 0 0 1  0 1 1 1 0"></feConvolveMatrix><feComposite operator="in" in="f2" in2="cm2" result="c2"></feComposite><feMerge><feMergeNode in="c2"></feMergeNode><feMergeNode in="c1"></feMergeNode><feMergeNode in="SourceGraphic"></feMergeNode></feMerge></filter></defs><g filter="url(#editing-lego)"><g transform="translate(132.41000056266785, 94.5)"><path d="M15.10-38.74L9.64 0L1.45 0L6.91-38.74L15.10-38.74ZM22.70-38.74L30.04-38.74L38.83-14.42L38.91-14.42L38.91-14.42Q39.08-14.93 39.34-18.69L39.34-18.69L42.15-38.74L49.41-38.74L43.95 0L36.69 0L27.65-24.41L27.65-24.41Q27.56-23.81 27.48-22.61L27.48-22.61L27.48-22.61Q27.39-21.42 27.14-20.05L27.14-20.05L24.41 0L17.24 0L22.70-38.74ZM76.97-38.74L75.95-32.09L68.10-32.09L63.57 0L55.38 0L59.82-32.09L51.88-32.09L52.74-38.74L76.97-38.74ZM91.90-32.68L90.28-20.74L93.87-20.57L93.87-20.57Q98.73-20.57 99.67-26.62L99.67-26.62L99.67-26.62Q100.69-32.85 95.23-32.85L95.23-32.85L95.23-32.85Q93.95-32.85 91.90-32.68L91.90-32.68ZM96.51 0L92.42-14.68L89.43-14.76L87.38 0L79.62 0L85.08-38.74L85.08-38.74Q85.08-38.74 95.49-39.00L95.49-39.00L95.49-39.00Q102.91-39.00 105.73-36.18L105.73-36.18L105.73-36.18Q108.71-33.37 107.86-26.45L107.86-26.45L107.86-26.45Q107.18-21.85 104.87-19.24L104.87-19.24L104.87-19.24Q102.57-16.64 99.84-15.79L99.84-15.79L105.22 0L96.51 0ZM131.07-31.15L131.07-31.15L131.07-31.15Q130.47-29.70 129.71-27.48L129.71-27.48L129.71-27.48Q128.94-25.26 128-22.74L128-22.74L128-22.74Q127.06-20.22 126.08-17.54L126.08-17.54L126.08-17.54Q125.10-14.85 124.07-12.29L124.07-12.29L132.44-12.29L132.44-12.29Q132.27-14.85 132.01-17.54L132.01-17.54L132.01-17.54Q131.75-20.22 131.58-22.74L131.58-22.74L131.58-22.74Q131.41-25.26 131.24-27.48L131.24-27.48L131.24-27.48Q131.07-29.70 131.07-31.15ZM111.19 0L127.40-38.74L137.22-38.74L142.34 0L133.72 0L132.95-6.74L122.11-6.74L119.38 0L111.19 0ZM150.61-38.74L157.95-38.74L166.74-14.42L166.83-14.42L166.83-14.42Q167.00-14.93 167.25-18.69L167.25-18.69L170.07-38.74L177.32-38.74L171.86 0L164.61 0L155.56-24.41L155.56-24.41Q155.48-23.81 155.39-22.61L155.39-22.61L155.39-22.61Q155.31-21.42 155.05-20.05L155.05-20.05L152.32 0L145.15 0L150.61-38.74ZM200.79 0L179.80 0L185.26-38.74L206.17-38.74L205.14-32.09L192.60-32.09L191.32-23.13L200.87-23.13L200.02-16.90L190.38-16.90L188.93-6.66L201.64-6.66L200.79 0ZM233.73-38.74L232.70-32.09L224.85-32.09L220.33 0L212.14 0L216.58-32.09L208.64-32.09L209.49-38.74L233.73-38.74Z" fill="#fff"></path></g></g><style>text {
  font-size: 64px;
  font-family: Arial Black;
  dominant-baseline: central;
  text-anchor: middle;
}</style></svg>